<svg width="28" height="23" viewBox="0 0 28 23" fill="none" xmlns="http://www.w3.org/2000/svg">
<path d="M28 6.45117V17.85C28.0001 19.0122 27.5554 20.1303 26.7573 20.9751C25.9591 21.8199 24.8679 22.3272 23.7076 22.393L23.45 22.4H4.55C3.38781 22.4 2.26964 21.9554 1.42488 21.1572C0.580113 20.3591 0.0727981 19.2679 0.00700016 18.1076L0 17.85V6.45117L13.5128 13.5296C13.6631 13.6083 13.8303 13.6494 14 13.6494C14.1697 13.6494 14.3369 13.6083 14.4872 13.5296L28 6.45117Z" fill="#E3E4E6" fill-opacity="0.55"/>
<path d="M4.54991 3.30471e-08H23.4499C24.5777 -0.000135821 25.6654 0.418594 26.502 1.17497C27.3385 1.93135 27.8644 2.97147 27.9775 4.0936L13.9999 11.4156L0.0223083 4.0936C0.130841 3.01604 0.620178 2.01252 1.40236 1.26345C2.18454 0.514372 3.20826 0.0688618 4.28951 0.00700019L4.54991 3.30471e-08H23.4499H4.54991Z" fill="#E3E4E6" fill-opacity="0.55"/>
</svg>
