<svg width="48" height="48" viewBox="0 0 48 48" fill="none" xmlns="http://www.w3.org/2000/svg">
<path d="M16.441 13C17.5007 13 18.4543 13.0918 19.3287 13.2789C20.1977 13.4642 20.939 13.7701 21.5652 14.1929C22.1823 14.6157 22.6645 15.1771 23.0117 15.8824C23.3482 16.5787 23.5155 17.4495 23.5155 18.4787C23.5155 19.5942 23.2636 20.5262 22.7581 21.2693C22.2489 22.0142 21.4986 22.6241 20.4982 23.0955C21.8602 23.4895 22.8696 24.1786 23.5389 25.1574C24.2118 26.1452 24.5411 27.3273 24.5411 28.7127C24.5411 29.8372 24.327 30.8034 23.897 31.6149C23.4826 32.4142 22.8814 33.1018 22.1445 33.6192C21.3812 34.1507 20.5286 34.5408 19.6274 34.7707C18.6825 35.0188 17.7094 35.1433 16.7324 35.1414H6V13H16.441ZM15.8094 21.9458C16.6731 21.9458 17.3891 21.7407 17.9541 21.3251C18.5155 20.9148 18.7872 20.2383 18.7872 19.3117C18.7872 18.7971 18.6954 18.3725 18.5155 18.0397C18.3402 17.7194 18.0807 17.4532 17.7652 17.2696C17.4349 17.0737 17.0704 16.9424 16.691 16.8827C16.2776 16.8056 15.8576 16.7689 15.437 16.773H10.8759V21.9458H15.8094ZM16.0811 31.372C16.5615 31.372 17.0185 31.3306 17.4485 31.2334C17.8821 31.1399 18.2672 30.9887 18.5946 30.7638C18.9221 30.5479 19.192 30.2546 19.3863 29.8804C19.5824 29.5098 19.6778 29.0258 19.6778 28.4446C19.6778 27.3039 19.3557 26.4924 18.7188 26.0013C18.0801 25.5155 17.2236 25.2744 16.1747 25.2744H10.8759V31.3738H16.0811V31.372ZM31.4915 31.2982C32.1519 31.9423 33.1037 32.2662 34.3415 32.2662C35.2285 32.2662 35.995 32.0413 36.6409 31.5951C37.2779 31.1471 37.6665 30.6685 37.8158 30.1737H41.6932C41.0707 32.1025 40.1261 33.4807 38.8342 34.3101C37.5586 35.1432 36.0058 35.557 34.1922 35.557C32.9291 35.557 31.792 35.3537 30.7736 34.9506C29.7962 34.57 28.9128 33.9819 28.1845 33.227C27.4683 32.4544 26.9145 31.5458 26.5562 30.5551C26.1624 29.4596 25.9674 28.3025 25.9805 27.1384C25.9805 25.9401 26.1802 24.8192 26.5724 23.7846C26.9448 22.7846 27.5165 21.8706 28.2529 21.0983C28.9816 20.3427 29.8452 19.7471 30.851 19.3099C31.9086 18.8651 33.0467 18.6434 34.194 18.6586C35.5506 18.6586 36.7363 18.9213 37.7547 19.4503C38.7422 19.9552 39.5985 20.6834 40.2556 21.5769C40.9087 22.464 41.3747 23.4805 41.6644 24.6194C41.9541 25.7566 42.0548 26.9441 41.9721 28.1873H30.4012C30.403 29.454 30.8294 30.6541 31.4915 31.2982ZM36.551 22.876C36.0274 22.2966 35.1422 21.9836 34.059 21.9836C33.3555 21.9836 32.7744 22.1005 32.3066 22.3416C31.8789 22.5577 31.4994 22.8582 31.1911 23.225C30.9203 23.5581 30.7196 23.9424 30.6009 24.355C30.4971 24.6989 30.4302 25.053 30.4012 25.4111H37.5657C37.4614 24.2884 37.0764 23.4589 36.551 22.876ZM29.5016 14.4862H38.478V16.6722H29.5016V14.4862Z" fill="#E3E4E6" fill-opacity="0.55"/>
</svg>
